<svg xmlns="http://www.w3.org/2000/svg" width="33" height="32" viewBox="0 0 33 32">
  <path id="LinkedIn" d="M30.643,2.25H2.35A2.331,2.331,0,0,0,0,4.557V31.943A2.331,2.331,0,0,0,2.35,34.25H30.643A2.338,2.338,0,0,0,33,31.943V4.557A2.338,2.338,0,0,0,30.643,2.25ZM9.974,29.679H5.083V14.407h4.9V29.679ZM7.528,12.321a2.751,2.751,0,1,1,0-5.5,2.751,2.751,0,1,1,0,5.5Zm20.78,17.357H23.417V22.25c0-1.771-.037-4.05-2.541-4.05-2.549,0-2.939,1.929-2.939,3.921v7.557H13.045V14.407h4.692v2.086H17.8a5.183,5.183,0,0,1,4.633-2.464c4.95,0,5.871,3.164,5.871,7.279Z" transform="translate(0 -2.25)"/>
</svg>
