<svg xmlns="http://www.w3.org/2000/svg" width="33" height="31" viewBox="0 0 33 31">
  <path id="Phone" d="M35.33,6.495l-.055-.032L28.384,3.274,20.946,12.59l3.422,4.286a6.843,6.843,0,0,1-6.614,6.214l-4.563-3.215L3.274,26.862l3.367,6.42.028.054.034.051a2.029,2.029,0,0,0,1.7.886h1.778c14.409,0,26.09-10.973,26.09-24.509V8.094A1.852,1.852,0,0,0,35.33,6.495Zm-1.6,3.27c0,12.2-10.562,22.117-23.543,22.117H8.745l-2.253-4.3,6.7-4.72,3.73,2.628h.424c5.289-.006,9.576-4.032,9.582-9v-.4l-2.8-3.5L29.154,6.3l4.573,2.117Z" transform="translate(-3.274 -3.274)"/>
</svg>
